<svg width="51" height="51" viewBox="0 0 51 51" fill="none" xmlns="http://www.w3.org/2000/svg">
<g clip-path="url(#clip0_547_6706)">
<path d="M18.4761 5.38921L19.5613 5.36208L20.6601 5.38921L21.7589 5.36208L22.8577 5.37564H23.9429H25.0552L26.154 5.34851L27.2528 5.36208L28.3651 5.38921" stroke="#333333" stroke-linecap="round" stroke-linejoin="round"/>
<path d="M32.8009 19.1579L32.6653 18.5745L32.4482 18.0184L32.1905 17.4758L31.77 17.0553L31.3766 16.5669L30.8882 16.1735L30.3456 15.8615L29.7623 15.6309L29.1655 15.441L28.5415 15.3867L27.9175 15.4274L27.2935 15.4817L26.7102 15.7123L26.1404 15.9565L25.6385 16.3227L25.1366 16.689L24.7296 17.1638L24.2956 17.6114L24.0243 18.1676L23.6173 18.6424L23.4138 19.1985L23.2104 18.6424L22.8305 18.1405L22.5457 17.5843L22.1251 17.1231L21.6911 16.689L21.2434 16.2549L20.6872 15.9565L20.1175 15.6987L19.5342 15.441L18.9102 15.346L18.2862 15.3867L17.6758 15.4681L17.0653 15.6038L16.4956 15.8751L15.9394 16.1599L15.4782 16.5805L15.0306 17.0146L14.6914 17.4893L14.393 17.9912L14.1624 18.5339L14.0674 19.1036L13.9589 19.6733L13.9182 20.2566L14.0674 20.8264L14.0946 21.4097L14.298 21.9658L14.5151 22.4949L15.0577 23.4173L15.017 23.4444L15.3426 23.9599L15.7359 24.4211L16.0886 24.923L16.4685 25.3978L16.8619 25.859L17.3231 26.266L17.7843 26.6594L18.2455 27.0663L18.7203 27.4597L19.1951 27.8531L19.7241 28.1651L20.226 28.5178L20.7415 28.8434L21.257 29.1825L21.786 29.5081L22.3015 29.8472L22.8577 30.1049L23.3731 30.4576L23.9157 30.1592L24.4041 29.7929L24.9603 29.5623L25.4486 29.1961L25.9641 28.8841L26.4931 28.5856L26.9815 28.233L27.4969 27.9074L27.9175 27.4733L28.3922 27.0935L28.867 26.7136L29.274 26.2796L29.7081 25.8726L30.115 25.4385L30.5627 25.0316L30.9154 24.5432L31.3223 24.0956L31.6614 23.5937L31.9599 23.0782L32.1905 22.522L32.4347 21.9794L32.6517 21.4232L32.7738 20.8399L32.8552 20.2566L32.8823 19.6598L32.8009 19.0765V19.1579Z" fill="#333333"/>
<path d="M41.7539 19.7818L42.812 19.9446L43.8701 20.0803L44.9417 20.2159L45.9998 20.3516L47.0715 20.5008L48.1431 20.6364L47.9803 21.7759L47.8447 22.9018L47.6819 24.0277L47.5191 25.1672L47.3428 26.3067L47.1935 27.4326" stroke="#333333" stroke-linecap="round" stroke-linejoin="round"/>
<path d="M5.95549 29.5759L4.92454 30.0914L4.05637 30.8239L3.20176 31.5835L2.5642 32.5195L2.04872 33.5098L2.03516 34.6086L2.46924 35.6667L3.44593 36.2635L4.43619 36.8061L5.54853 37.0232L6.63375 37.3216L7.75966 37.4301L8.89913 37.5115L10.025 37.3759L11.1509 37.4166L12.2769 37.2674L13.4028 37.1317L14.5151 36.9418L15.6275 36.7926L16.7534 36.6841L17.8521 36.3992L18.9238 36.0736L19.9954 35.7209L21.1213 35.5039L22.2066 35.219L23.2782 34.8392L24.3227 34.378L25.3944 34.0117L26.466 33.6455L27.4834 33.1435L28.5551 32.7502L29.5453 32.194L30.6441 31.8413L31.5937 31.2037L32.6246 30.7289L33.6149 30.1999L34.6458 29.7116L35.6496 29.1961L36.5992 28.5721L37.6302 28.0837L38.5661 27.4326L39.5157 26.795L40.5195 26.2524L41.4148 25.547L42.4051 24.9909L43.2597 24.2177L44.1686 23.5394L45.1317 22.929L46.0541 22.2507L46.8816 21.4775L47.8583 20.8399" stroke="#333333" stroke-linecap="round" stroke-linejoin="round"/>
<path d="M34.266 49.6659L33.1265 49.5981L31.987 49.693L30.8476 49.5574L29.7081 49.6116L28.5686 49.7337L27.4291 49.6659L26.2897 49.5845L25.1502 49.6116L24.0107 49.7202L22.8712 49.6252L21.7318 49.5981L20.5787 49.6795L19.4393 49.6252L18.2998 49.6388L17.1603 49.7473L16.0073 49.7337L14.8678 49.5845L13.7148 49.6116H12.5617L11.5036 49.5031L10.649 48.852L10.1064 47.9567L9.76729 46.9393L9.86224 45.7998L9.88937 44.6604L9.80798 43.5344L9.75372 42.395L9.83511 41.2555L9.9165 40.116L9.84868 38.9766L9.9165 37.8371L9.88937 36.6976L9.93007 35.5446L9.88937 34.4051L9.84868 33.2656L9.82155 32.1261L9.75372 30.9867L9.84868 29.8472L9.9165 28.7077L9.82155 27.5682L9.86224 26.4288L9.76729 25.2757L9.80798 24.1363L9.86224 22.9968L9.76729 21.8573L9.80798 20.7178L9.9165 19.5648L9.94364 18.4253L9.83511 17.2858L9.88937 16.1464L9.90294 15.0069L9.84868 13.8539L9.78085 12.7144L9.87581 11.5749L9.94364 10.4219L9.79442 9.2824L9.9165 8.14292L9.75372 6.98989L9.79442 5.83685L9.76729 4.68381V3.53077L10.12 2.51338L10.6083 1.59095L11.4901 0.953386L12.5617 0.817734L13.7012 0.85843L14.8407 0.8313L15.9801 0.912691L17.1196 0.777039L18.2591 0.88556L19.3986 0.777039L20.538 0.722778L21.6775 0.763474L22.817 0.790604L23.9564 0.88556L25.0959 0.777039L26.249 0.736343L27.3884 0.790604H28.5279L29.6674 0.736343L30.8204 0.790604L31.9599 0.817734L33.1129 0.8313L34.266 0.777039L35.3105 1.02121L36.1651 1.63164L36.8298 2.47268L36.9519 3.53077L37.0197 4.67024L36.9247 5.80972L36.9112 6.94919L36.8976 8.08866L37.0061 9.21457L36.9654 10.354L36.8976 11.4935L37.0061 12.633L36.9519 13.786L37.0604 14.9255L36.9112 16.065L37.0061 17.2045L36.9383 18.3439L36.8976 19.4834L37.074 20.6229L36.9926 21.7759L37.0197 22.9154L36.8841 24.0549L36.9926 25.1943V26.3338L36.979 27.4869L37.0197 28.6263L36.9654 29.7658L36.9247 30.9053V32.0447L37.0604 33.1842V34.3237L36.9926 35.4767L37.0333 36.6162V37.7557L36.9519 38.9087L36.9654 40.0482L36.9112 41.2012L36.8841 42.3407L36.9112 43.4802L36.979 44.6332L36.8976 45.7863L36.9383 46.9393L36.7891 47.9838L36.2194 48.8927L35.3105 49.476L34.266 49.6659Z" stroke="#333333" stroke-linecap="round" stroke-linejoin="round"/>
</g>
<defs>
<clipPath id="clip0_547_6706">
<rect width="47.4645" height="50.381" fill="white" transform="translate(1.35687 0.0445251)"/>
</clipPath>
</defs>
</svg>
