<svg width="50" height="51" viewBox="0 0 50 51" fill="none" xmlns="http://www.w3.org/2000/svg">
<g clip-path="url(#clip0_547_6707)">
<path d="M3.40805 9.6242L3.3487 9.9666L3.19805 10.3273V10.7108L3.24827 11.1034L3.06109 11.464L3.11587 11.8567L3.03826 12.231L2.99717 12.6099L2.89674 12.9843L2.83282 13.3632L2.93782 13.7558L2.77804 14.1256L2.91956 14.5182L2.7963 14.8926L2.72325 15.2715L2.6913 15.6505L2.75978 16.0339L2.74151 16.4129L2.7826 16.7964L2.74608 17.1753L2.73695 17.5542L2.78717 17.9377L2.65021 18.3212L2.65934 18.7047V19.0882L2.82826 19.4671L2.81456 19.8506V20.2295L2.70043 20.6175L2.71412 21.001L2.80999 21.38L2.85108 21.7589L2.96522 22.1332L2.98348 22.5167L2.90587 22.9093L3.04739 23.2791V23.6626L3.12044 24.0415L3.0337 24.4387L3.12044 24.8131L3.14783 25.1966L3.35784 25.5527L3.26196 25.959L3.41262 26.3242V26.7168L3.55414 27.0821L3.57241 27.4701L3.64089 27.849L3.84176 28.2006L3.78241 28.6115L3.89198 28.9812L3.98785 29.351L4.20699 29.6889L4.2846 30.0632L4.37591 30.433L4.4946 30.7983L4.62243 31.1589L4.63157 31.5561L4.83701 31.8894L4.88722 32.2774L5.09723 32.6107L5.20223 32.9805L5.35289 33.332L5.42137 33.7155L5.54007 34.0807L5.77747 34.3957L5.88703 34.7655L6.13356 35.0714L6.23856 35.4412L6.4714 35.7516L6.63575 36.094L6.72706 36.4775L6.95989 36.7834L7.12881 37.1258L7.3662 37.4271L7.48947 37.7969L7.70404 38.1165L8.00535 38.3767L8.12405 38.7556L8.33862 39.0706L8.61254 39.3446L8.85907 39.6368L9.03712 39.9792L9.23343 40.3124L9.49365 40.5955L9.81323 40.8237L9.95019 41.2118L10.2195 41.4857L10.5391 41.7094L10.7719 42.0153L11.0367 42.2892L11.2833 42.5814L11.5435 42.8599L11.8813 43.0562L12.21 43.2616L12.4748 43.5356L12.7168 43.8369L13.0409 44.0423L13.3559 44.2569L13.6846 44.4532L13.9312 44.7636L14.2964 44.9052L14.616 45.106L14.9173 45.3434L15.2642 45.5032L15.5245 45.8091L15.8943 45.9324L16.1727 46.2154L16.506 46.4026L16.8667 46.5395L17.2045 46.713L17.5971 46.7769L17.8984 47.0235L18.2774 47.1056L18.5969 47.3202L18.9439 47.48L19.3183 47.5713L19.6241 47.8361L19.9894 47.9457L20.3683 48.0187L20.7153 48.1785L21.0759 48.3018L21.4685 48.3155L21.8109 48.4889L22.1625 48.6487H22.5551L22.8884 48.8816L23.2855 48.8679L23.6599 48.9409L24.0069 49.1327L24.3949 49.1555L24.7647 49.2696L24.9473 49.2148L25.1071 49.1418L25.4952 49.1327H25.8878L26.2667 49.0687L26.6 48.8177L26.9789 48.7629L27.3807 48.7766L27.7504 48.6761L28.0746 48.4113L28.4672 48.3931L28.8416 48.3063L29.2068 48.1922L29.5538 48.0278L29.9327 47.9502L30.2888 47.8041L30.6403 47.6581L30.9644 47.4344L31.3297 47.3202L31.6629 47.1239L32.0327 47.0189L32.3432 46.7815L32.7358 46.713L33.0234 46.4345L33.3613 46.2565L33.7493 46.1698L34.1008 46.0145L34.4295 45.8182L34.6852 45.5078L35.0185 45.3252L35.3517 45.138L35.6804 44.9417L35.9818 44.7088L36.3424 44.5536L36.5844 44.2386L36.9542 44.0925L37.2327 43.8277L37.5659 43.6269L37.817 43.3301L38.0909 43.0653L38.4288 42.8644L38.6616 42.554L38.9675 42.3212L39.1181 41.9331L39.4468 41.7231L39.7208 41.4583L39.9308 41.1342L40.2047 40.8694L40.4375 40.5681L40.7069 40.2942L40.9397 39.9928L41.1999 39.7098L41.3369 39.34L41.5697 39.0387L41.8756 38.7876L42.0034 38.4132L42.2545 38.1211L42.5239 37.838L42.6015 37.4408L42.8526 37.1486L43.1083 36.8565L43.1767 36.4593L43.3183 36.1077L43.5967 35.8247L43.6926 35.4458L43.8661 35.1079L44.0715 34.7838L44.14 34.3957L44.2861 34.0442L44.5737 33.752L44.7153 33.3959L44.7609 33.0033L44.8705 32.6381L45.0029 32.282L45.2037 31.9487L45.2357 31.5561L45.4046 31.2091L45.4685 30.8302L45.5872 30.4695L45.8064 30.1363L45.9068 29.7665L45.9251 29.3739L46.1031 29.0223L46.1351 28.6343L46.2538 28.2691L46.2264 27.8719L46.4044 27.5158L46.3633 27.1186L46.4957 26.7534L46.5597 26.3744L46.651 26.0001V25.612L46.7651 25.2422L46.7423 24.8542L46.861 24.4844L46.9934 24.1146L46.9386 23.722L46.9477 23.3385L47.0299 22.9641L47.0071 22.5761L47.1942 22.2063V21.8182L47.1075 21.4256V21.0421L47.1486 20.6586L47.2855 20.2797L47.1851 19.8917L47.2353 19.5082V19.1247L47.3312 18.7412L47.1942 18.3577L47.3586 17.9742L47.3084 17.5907L47.3358 17.2072V16.8237L47.2536 16.4448L47.3221 16.0613L47.3084 15.6778L47.2399 15.2989L47.1349 14.9246L47.1988 14.5411L47.1577 14.1622L47.1805 13.7787L47.0984 13.4043L47.0481 13.0254L47.0299 12.6419L46.9203 12.2675L46.8564 11.8932L46.9431 11.5006L46.8153 11.1308L46.7286 10.761V10.3775L46.6236 10.0123L46.6007 9.68355L46.2675 9.6379L45.8931 9.55116L45.5142 9.5192L45.1261 9.57855L44.7563 9.42789L44.3729 9.4142L43.9985 9.35028H43.615L43.2406 9.29093L42.8617 9.24528L42.4782 9.23158L42.1039 9.15397L41.7341 9.05354L41.3552 9.01245L40.9808 8.93484L40.6019 8.87549L40.2458 8.70657L39.8714 8.63352L39.4697 8.7157L39.1181 8.53765L38.7575 8.41439L38.3786 8.3733H37.9859L37.6435 8.17699H37.2509L36.872 8.10851L36.525 7.92133L36.1415 7.87568L35.7991 7.68393L35.4385 7.5561L35.023 7.60632L34.708 7.32784L34.3382 7.2274L33.9593 7.16348L33.5713 7.11327L33.2197 6.96261L32.9047 6.71152L32.5167 6.65217L32.124 6.60195L31.809 6.36455L31.421 6.30063L31.1151 6.03584L30.759 5.89888L30.4257 5.70714L30.0468 5.61583L29.709 5.43778L29.3757 5.25061L29.0333 5.08169L28.6498 4.99038L28.3439 4.74842L27.997 4.58863L27.6409 4.44254L27.2711 4.31015L27.02 3.98144L26.6365 3.87644L26.358 3.59795L26.043 3.38338L25.7143 3.18707L25.4176 2.94511L25.0478 2.83554L24.7465 3.04098L24.3721 3.16425L24.0845 3.42447L23.8106 3.70752L23.4773 3.89927L23.1029 4.02253L22.7788 4.22797L22.4592 4.44254L22.0894 4.5658L21.7333 4.71646L21.3864 4.88081L21.0714 5.09995L20.7472 5.30996L20.3683 5.40583L20.0168 5.56105L19.6835 5.74823L19.3365 5.90801L19.0261 6.14998L18.6837 6.32803L18.2956 6.39194L17.9213 6.48325L17.5606 6.61564L17.241 6.85304L16.8712 6.95804L16.4923 7.03109L16.1545 7.2274L15.7847 7.32784L15.4377 7.49675L15.0451 7.52415L14.6616 7.5835L14.3329 7.82089L13.954 7.89394L13.5751 7.96242L13.2235 8.1359L12.8492 8.22264L12.4611 8.25003L12.1142 8.44634L11.7124 8.40982L11.3654 8.61526H10.9728L10.5802 8.597L10.2378 8.8344L9.83605 8.76135L9.47996 8.93484L9.1056 9.00332L8.72211 9.03527L8.33862 9.05354L7.96426 9.11288L7.58078 9.12201L7.20642 9.20419L6.84119 9.35941L6.45314 9.34115L6.07878 9.44615L5.68616 9.33659L5.31637 9.45985L4.93744 9.51463H4.55852L4.17503 9.49637L3.79611 9.48268L3.45827 9.6242H3.40805Z" stroke="#333333" stroke-width="1.00071" stroke-miterlimit="10"/>
<path d="M22.925 17.6178L22.9478 17.2298L23.0574 16.8554L23.2537 16.513L23.5094 16.2163L23.8244 15.9789L24.1759 15.81L24.5457 15.6821L24.9337 15.6502L25.025 15.6593L25.3994 15.7095L25.7601 15.8282L26.1025 16.0017L26.3764 16.2619L26.632 16.5404L26.8238 16.8737L26.906 17.2435L26.9744 17.6178L26.9653 17.9968L26.9607 18.3757L26.9699 18.7546L26.9653 19.1335L26.9562 19.5125L26.9607 19.8914L26.9471 20.2703L26.9607 20.6492L26.9471 21.0327V21.4162L26.9607 21.7951L26.906 22.1832L26.7964 22.553L26.6138 22.8999L26.3627 23.2012L26.0522 23.4432L25.7007 23.6121L25.3264 23.7354L24.9337 23.7719L24.5502 23.708L24.1759 23.603L23.8152 23.4432L23.5139 23.1921L23.2583 22.8999L23.0574 22.5621L22.9524 22.1832L22.9113 21.7951L22.9067 21.4162L22.9113 21.0373L22.9022 20.6584L22.925 20.2794L22.9113 19.9005L22.9204 19.5216L22.9159 19.1427V18.7637L22.9022 18.3848V18.0013L22.925 17.6178Z" fill="#333333"/>
<path d="M9.89544 23.7401L9.64891 23.4388L9.46173 23.1009L9.35216 22.7266L9.32477 22.3431L9.34303 21.955L9.47542 21.5944L9.64891 21.2474L9.9137 20.9644L9.97761 20.8913L10.2835 20.6585L10.6305 20.4987L11.0002 20.4074L11.3837 20.3846L11.7627 20.4393L12.1325 20.5352L12.4703 20.7133L12.767 20.9598L13.0455 21.2246L13.3194 21.4939L13.6025 21.7542L13.8673 22.0372L14.1549 22.2929L14.4379 22.5577L14.6936 22.8407L14.9904 23.0964L15.2643 23.3703L15.5382 23.6442L15.8258 23.909L16.0723 24.2057L16.2504 24.5481L16.3737 24.9134L16.3965 25.3014L16.3737 25.6849L16.2458 26.0501L16.0586 26.3834L15.8212 26.6847L15.5062 26.9221L15.1593 27.1093L14.7804 27.2234L14.3877 27.2691L13.9951 27.228L13.6162 27.1093L13.2601 26.9404L12.9496 26.6939L12.6894 26.4062L12.4109 26.1414L12.1188 25.8904L11.8494 25.6119L11.5709 25.3516L11.2879 25.0869L11.0185 24.8084L10.7446 24.539L10.4615 24.2742L10.1831 24.0003L9.9 23.7355L9.89544 23.7401Z" fill="#333333"/>
<path d="M14.3329 32.6105L14.5201 32.2589L14.7393 31.9394L14.9812 31.638L15.2323 31.3459L15.4788 31.0537L15.7071 30.7387L15.9536 30.4419L16.2732 30.2137L16.5517 29.9489L16.8165 29.6658L17.1178 29.4284L17.4237 29.1956L17.725 28.9491L18.0217 28.7025L18.3596 28.5108L18.6883 28.3099L19.0307 28.1319L19.3913 27.9903L19.7109 27.7621L20.0898 27.6662L20.4277 27.4699L20.8112 27.3923L21.1627 27.2325L21.5234 27.0955L21.8977 27.0042L22.2766 26.9175L22.6601 26.8581L23.0436 26.817L23.418 26.7166L23.806 26.6846L24.1895 26.6801L24.5776 26.6664L24.9656 26.6618L25.3491 26.6344L25.7326 26.712L26.1207 26.6938L26.5087 26.7166L26.8831 26.8399L27.2757 26.8307L27.65 26.9266L28.0198 27.027L28.3988 27.1047L28.7686 27.2279L29.1247 27.374L29.4944 27.4881L29.8368 27.6708L30.2066 27.7895L30.5399 27.9903L30.8777 28.1684L31.2338 28.3236L31.5488 28.5473L31.8821 28.7391L32.2108 28.9399L32.5395 29.1499L32.8363 29.3919L33.1148 29.6658L33.4298 29.8895L33.7128 30.1589L33.9274 30.4876L34.2013 30.7569L34.5026 31.008L34.7218 31.3276L34.9637 31.6289L35.2011 31.9302L35.3883 32.2726L35.5892 32.5968L35.2103 32.6105L34.8313 32.6059L34.457 32.6242L34.078 32.5648L33.6991 32.6013L33.3248 32.5831L32.9458 32.5922L32.5715 32.5968L32.1926 32.6242L31.8136 32.6287L31.4393 32.6242L31.0604 32.6196L30.6814 32.5739L30.3025 32.5968L29.9236 32.6424L29.5447 32.5785L29.1657 32.6242L28.7868 32.6105L28.4079 32.6059L28.029 32.5785L27.65 32.5602L27.2711 32.6242L26.8922 32.5648L26.5133 32.6424L26.1344 32.5968L25.7554 32.5694L25.3765 32.5648L24.993 32.6013H24.6141L24.2352 32.6242L23.8562 32.6105H23.4773L23.0984 32.6333L22.7149 32.5694H22.336H21.9571L21.5781 32.6424L21.1947 32.6287L20.8157 32.6242L20.4368 32.5648L20.0533 32.5602L19.6744 32.5922L19.2955 32.6013L18.9165 32.6379L18.5376 32.6333L18.1541 32.5831L17.7752 32.6287L17.3963 32.6105L17.0128 32.6242L16.6339 32.5602L16.2504 32.5785L15.8715 32.5648L15.488 32.6379L15.1045 32.5648L14.721 32.6013L14.3329 32.6105Z" fill="#333333"/>
<path d="M40.022 23.7219L39.7436 23.9866L39.4788 24.2697L39.1957 24.5299L38.9127 24.7947L38.6342 25.0595L38.3603 25.3289L38.0863 25.5982L37.817 25.8767L37.5431 26.1506L37.26 26.42L36.977 26.6848L36.662 26.9222L36.315 27.1002L35.9361 27.2189L35.5434 27.2646L35.1554 27.2052L34.7765 27.1002L34.4249 26.9313L34.1191 26.6802L34.0506 26.6117L33.8177 26.3195L33.6397 25.9863L33.5484 25.6256L33.521 25.2512L33.5712 24.8769L33.699 24.5299L33.8634 24.1921L34.1236 23.9227L34.3838 23.6397L34.676 23.384L34.9408 23.1055L35.2147 22.8316L35.4932 22.5668L35.7671 22.2975L36.0502 22.0327L36.3332 21.7725L36.598 21.4894L36.8811 21.2246L37.1641 20.9598L37.4746 20.7133L37.8261 20.5352L38.205 20.412L38.5977 20.3983L38.9903 20.4165L39.3738 20.5215L39.7116 20.7224L40.0357 20.9507L40.2823 21.2474L40.4649 21.5898L40.5881 21.9596L40.6247 22.3431L40.5744 22.7266L40.4694 23.0964L40.2686 23.4297L40.0312 23.731L40.022 23.7219Z" fill="#333333"/>
</g>
<defs>
<clipPath id="clip0_547_6707">
<rect width="46.078" height="47.9954" fill="white" transform="translate(1.96075 1.96805)"/>
</clipPath>
</defs>
</svg>
