<svg width="51" height="51" viewBox="0 0 51 51" fill="none" xmlns="http://www.w3.org/2000/svg">
<g clip-path="url(#clip0_547_6708)">
<path d="M1.99276 18.0461L2.60778 17.0806L3.49455 16.381L4.46713 15.7933L5.48263 15.3036L6.49812 14.7719L7.39919 14.1003L8.20015 13.3447L8.68644 12.3653L9.15843 11.3299L9.21564 10.2105L9.516 9.11916L9.74484 8.04177L10.0595 6.9504L10.8175 6.09688L11.876 5.63515L13.0345 5.59317L14.1644 5.78906L15.28 5.97096H16.4385L17.5684 6.08289L18.6841 5.91499L19.7282 5.46724L20.6149 4.73966L21.3444 3.88615L22.2597 3.20054L23.0464 2.389L24.019 1.80134L25.1346 1.50751L26.2502 1.77336L27.2371 2.36102L28.0094 3.18655L28.8819 3.90014L29.7544 4.62772L30.5553 5.43926L31.628 5.81704L32.715 6.08289L33.8593 5.98495L34.9892 5.87301L36.1191 5.69112L37.2633 5.64914L38.3932 5.63515L39.4659 6.02692L40.1382 6.92241L40.6531 7.90185L40.9534 8.99323L41.0535 10.1126L41.1966 11.232L41.4826 12.3093L42.0976 13.2608L42.8557 14.1003L43.8426 14.646L44.8295 15.2057L45.8307 15.7374L46.8605 16.2411L47.7043 16.9967L48.3622 17.9061L48.4624 19.0395L48.1906 20.1309L47.7329 21.1523L47.2037 22.1457L46.6745 23.1391L46.317 24.2025L46.131 25.2799L46.317 26.3713L46.8032 27.3787L47.1608 28.4421L47.6757 29.4355L48.1763 30.443L48.4481 31.5204L48.4195 32.6537L47.7615 33.5632L46.9463 34.3607L45.9022 34.8085L44.9296 35.4101L43.9141 35.9278L42.9701 36.5435L42.1549 37.313L41.7115 38.3345L41.311 39.3699L41.0821 40.4752L40.982 41.5806L40.7532 42.686L40.2097 43.6654L39.5661 44.5469L38.4934 44.9107L37.3777 45.0366L36.2478 44.9247L35.1036 44.8687L33.988 44.5609L32.8438 44.6588L31.7425 44.8407L30.6984 45.2745L29.7973 45.9461L29.0535 46.7996L28.1668 47.5272L27.3515 48.3108L26.3789 48.8704L25.2776 49.1083L24.2049 48.8285L23.1894 48.3248L22.3456 47.5692L21.5017 46.8136L20.758 45.9601L19.7854 45.3724L18.7842 44.8827L17.6829 44.7288L16.5529 44.7428L15.423 44.8547L14.3074 45.0646L13.1489 45.0366L12.0047 45.1346L10.932 44.7008L10.2168 43.8053L9.74484 42.7979L9.60182 41.6786L9.27285 40.6012L9.07262 39.4958L8.85807 38.4044L8.28596 37.453L7.49931 36.6834L6.56964 36.0398L5.59705 35.4521L4.58155 34.9484L3.60897 34.3747L2.66499 33.7451L2.04997 32.7936L1.92124 31.6603L2.35033 30.6109L2.69359 29.5475L3.2514 28.568L3.7949 27.5886L4.03805 26.4832L4.38132 25.4059L4.19538 24.3005L3.73769 23.2651L3.22279 22.2716L2.7079 21.2642L2.193 20.2708L1.89264 19.1794L1.99276 18.0461Z" stroke="#333333" stroke-linecap="round" stroke-linejoin="round"/>
<path d="M38.8652 19.1934L39.28 20.2988L39.6662 21.4182L39.8807 22.5795L40.0523 23.7408V24.9301L39.9665 26.1195L39.8807 27.3228L39.5946 28.4981L39.2371 29.6455L38.7794 30.7508L38.2216 31.8142L37.6495 32.8776L36.92 33.857L36.1763 34.8085L35.2323 35.5781L34.3169 36.3896L33.3157 37.0612L32.3002 37.7608L31.1989 38.2785L30.0547 38.7263L28.8533 38.9921L27.6519 39.272L26.4361 39.3559L25.2061 39.5238L23.9761 39.3839L22.746 39.2999L21.5589 39.0201L20.3718 38.6983L19.2418 38.2226L18.1405 37.6769L17.0535 37.1312L16.0809 36.3896L15.1084 35.662L14.2216 34.8085L13.5207 33.8151L12.8056 32.8496L12.1763 31.8142L11.5613 30.7788L11.1751 29.6315L10.8175 28.4841L10.5744 27.3228L10.3598 26.1335L10.2883 24.9301L10.3884 23.7268L10.5458 22.5375L10.7889 21.3482L11.0893 20.1869L11.5613 19.0675L12.1334 18.0041L12.8056 16.9967L13.4921 16.0032L14.2788 15.0798L15.137 14.2263L16.0809 13.4567L17.1107 12.7991L18.1119 12.1135L19.2418 11.6098L20.3718 11.148L21.5446 10.7842L22.7603 10.6303L23.9761 10.4484L25.2061 10.3645L26.3789 10.4904L27.5517 10.6163L28.7246 10.7842L29.8688 11.0781L30.9701 11.4978L32.0285 12.0155" stroke="#333333" stroke-linecap="round" stroke-linejoin="round"/>
<path d="M38.6221 14.2682L37.6924 13.3028L36.6769 12.4213L36.0333 12.1414L35.3039 12.4633L34.5029 13.3028L33.7592 14.1843L33.0154 15.0518L32.2145 15.8913L31.4278 16.7308L30.6269 17.5703L29.8402 18.4099L29.0679 19.2774L28.2955 20.1309L27.5089 20.9844L26.7365 21.8379L25.9499 22.6914L25.1489 23.5309L24.3623 24.3845L23.5899 25.252L22.8033 26.0915L21.9308 25.2659L21.0869 24.3705L20.2574 23.475L19.3706 22.6075L18.541 21.698L17.8259 21.4181L17.1537 21.656L16.1954 22.5935L15.2514 23.5169L14.951 24.1746L15.1799 24.8742L16.0095 25.7417L16.839 26.5812L17.6829 27.4207L18.541 28.2462L19.3849 29.0998L20.1572 30.0092L21.044 30.8208L21.8736 31.6883L22.8319 32.0521L22.8462 32.0801V32.0661L23.7901 31.6743L24.5482 30.8068L25.3205 29.9673L26.1072 29.1277L26.9224 28.3162L27.7091 27.4627L28.4814 26.6232L29.2967 25.7976L30.0261 24.9161L30.8414 24.0906L31.6423 23.2651L32.3575 22.3556L33.1584 21.5301L34.0023 20.7325L34.7317 19.8371L35.5613 19.0255L36.3623 18.186L37.1203 17.3045L37.9213 16.465L38.665 15.5695L38.9081 14.9119L38.6221 14.2682Z" fill="#333333"/>
</g>
<defs>
<clipPath id="clip0_547_6708">
<rect width="48" height="49" fill="white" transform="translate(1.17749 0.807922)"/>
</clipPath>
</defs>
</svg>
